<svg id="Calque_1" data-name="Calque 1" xmlns="http://www.w3.org/2000/svg" viewBox="0 0 1061.13 194.65"><defs><style>.cls-1{fill:#ecb61c;stroke:#ecb61c;}.cls-1,.cls-2{stroke-miterlimit:10;}.cls-2{fill:#1d1a38;stroke:#1d1a38;}</style></defs><path class="cls-1" d="M214.81,278.55l3.06-9h855.69a49.35,49.35,0,0,1-4.86-8.38,36.77,36.77,0,0,1-2.57-12.19l.11-4.57s.08-2.77.84-2.67c0,0,.64,1.1,1.34,2.57,2,4.31,4.28,8.86,5.14,10.1a74.53,74.53,0,0,0,8.57,10,41.49,41.49,0,0,0,11.71,7.51c3.53,1.52,4.48,1.14,4.58,2.1s-2.77,1.61-3.81,2.09-9.24,4-13.43,8.19a49.17,49.17,0,0,0-8.38,10.29,50,50,0,0,0-4.86,9.81,8.07,8.07,0,0,1-1,2c-.76-.29-1-5.91-.82-7.91a61.65,61.65,0,0,1,1.24-7.71,30.2,30.2,0,0,1,5.14-10.86c.94-1.33,1-1.24,1-1.24Z" transform="translate(-37.79 -186.51)"/><polygon class="cls-1" points="125.96 83.36 28.68 83.36 35.06 91.53 123.15 91.53 125.96 83.36"/><polygon class="cls-1" points="25.53 83.36 31.66 91.53 17.36 91.53 11.06 83.36 25.53 83.36"/><polygon class="cls-1" points="6.47 83.36 12.6 91.53 7.36 91.53 1.02 83.36 6.47 83.36"/><polygon class="cls-2" points="12.6 0.98 42.38 75.36 81.02 75.36 51.57 0.98 12.6 0.98"/><path class="cls-2" d="M88.85,284.68s38.13,95.49,38.81,95.83,38.3,0,38.3,0l77.61-193H204.43L146.89,332.17l-18.38-47.32Z" transform="translate(-37.79 -186.51)"/><path class="cls-2" d="M317.45,187.49c-.85,1.19-35.75,74.89-35.75,74.89h71.66Z" transform="translate(-37.79 -186.51)"/><polygon class="cls-2" points="273.7 97.56 234.21 97.56 190.3 191.62 230.3 191.62 242.72 165.57 317.79 165.57 329.19 191.62 369.87 191.62 326.47 97.56 286.47 97.56 303.32 134.94 256.51 134.43 273.7 97.56"/><rect class="cls-2" x="389.62" y="3.87" width="37.96" height="72"/><polygon class="cls-2" points="480.17 3.87 433.36 75.87 476.43 75.87 523.4 3.87 480.17 3.87"/><polygon class="cls-2" points="389.62 97.56 389.62 192.64 427.57 192.64 427.57 110.26 484.77 192.64 529.87 192.64 463.83 97.56 389.62 97.56"/><path class="cls-2" d="M856,262.55s2.55-4.08,2.89-6.64,1-6.63,0-10.55a23,23,0,0,0-5.78-10.72c-3.24-3.41-7.1-4.58-11.24-6-7.4-2.47-31.83-1-31.83-1v34.89H772.6V191.23h61.07a68.84,68.84,0,0,1,9.23.65,84.56,84.56,0,0,1,10.38,1.91,53.4,53.4,0,0,1,14.51,6,86.67,86.67,0,0,1,10.34,7.66,52.39,52.39,0,0,1,11.36,12.89,47,47,0,0,1,6.77,16.21,59.37,59.37,0,0,1,1.1,13.58c-.14,3.4-.85,12.42-.85,12.42Z" transform="translate(-37.79 -186.51)"/><path class="cls-2" d="M772.6,284.51V379H810V290.64L870.13,379h45.61L862.3,303.4s5.1-1.7,8-3.06A38.7,38.7,0,0,0,879,294c2.38-2.21,3.91-3.23,5.62-5.61s2.72-3.92,2.72-3.92Z" transform="translate(-37.79 -186.51)"/><path class="cls-2" d="M970.89,284.51c.34.85,8,13.62,8,13.62V379H1016V297.62l7.49-13.11Z" transform="translate(-37.79 -186.51)"/><polygon class="cls-2" points="882.72 4.72 921.7 76.04 997.79 76.04 1036.6 4.72 994.21 4.72 959.83 71.28 925.62 4.72 882.72 4.72"/><path class="cls-2" d="M663.66,188.15c-.85,1.19-35.75,74.89-35.75,74.89h71.66Z" transform="translate(-37.79 -186.51)"/><polygon class="cls-2" points="619.91 98.22 580.42 98.22 536.51 192.27 576.51 192.27 588.94 166.23 664 166.23 675.4 192.27 716.09 192.27 672.68 98.22 632.68 98.22 649.53 135.59 602.72 135.08 619.91 98.22"/></svg>