<svg id="Calque_3" data-name="Calque 3" xmlns="http://www.w3.org/2000/svg" viewBox="0 0 798 798"><defs><style>.cls-1{fill:none;stroke-width:10px;}.cls-1,.cls-2{stroke:#ecb61c;}.cls-1,.cls-2,.cls-3{stroke-miterlimit:10;}.cls-2{fill:#ecb61c;}.cls-3{fill:#1d1a38;stroke:#1d1a38;}</style></defs><circle class="cls-1" cx="399" cy="399" r="394"/><path class="cls-2" d="M152.47,440c0,.74,18.95,23.23,18.95,23.23H187.7L170.09,440Z" transform="translate(-26.2 -26.2)"/><polygon class="cls-2" points="153.34 413.76 170.95 437 213.08 437 194.44 413.76 153.34 413.76"/><polygon class="cls-2" points="201.08 413.76 218.95 437 440.06 437 449.76 413.76 201.08 413.76"/><path class="cls-2" d="M608.21,462.94l10-24h68.94s-9.2-12.77-13-22.47-6.13-19.15-6.9-32.68l.28-12.26s.23-7.4,2.27-7.15c0,0,1.71,2.95,3.58,6.9,5.47,11.56,11.49,23.74,13.79,27.06s13,17.71,23,26.86a111.46,111.46,0,0,0,31.4,20.12c9.45,4.08,12,3.06,12.25,5.62s-7.4,4.34-10.21,5.61-24.76,10.73-36,22-16,17.19-22.47,27.58c-5.65,9.1-7.71,13.11-13,26.29-1.75,4.36-2.65,5.37-2.65,5.37-2-.76-2.71-15.84-2.2-21.2a167.26,167.26,0,0,1,3.32-20.68c1.83-8.3,5.87-17.87,13.79-29.1,2.5-3.56,2.81-3.32,2.81-3.32Z" transform="translate(-26.2 -26.2)"/><polygon class="cls-3" points="131.89 184.48 218.7 405.08 328.48 405.08 240.65 184.48 131.89 184.48"/><polygon class="cls-3" points="234.53 443.89 344.31 719.12 452.06 719.12 667.04 184.48 557.25 184.48 399 579.21 344.82 443.89 234.53 443.89"/></svg>